<?xml version="1.0" encoding="UTF-8" standalone="no"?>
<!-- Created with Inkscape (http://www.inkscape.org/) -->

<svg
   width="256"
   height="256"
   viewBox="0 0 67.733332 67.733333"
   version="1.1"
   id="svg1"
   inkscape:version="1.3.2 (091e20e, 2023-11-25, custom)"
   sodipodi:docname="error.svg"
   inkscape:export-filename="..\..\..\src\assets\images\icons\error.png"
   inkscape:export-xdpi="96"
   inkscape:export-ydpi="96"
   xmlns:inkscape="http://www.inkscape.org/namespaces/inkscape"
   xmlns:sodipodi="http://sodipodi.sourceforge.net/DTD/sodipodi-0.dtd"
   xmlns:xlink="http://www.w3.org/1999/xlink"
   xmlns="http://www.w3.org/2000/svg"
   xmlns:svg="http://www.w3.org/2000/svg"
   xmlns:rdf="http://www.w3.org/1999/02/22-rdf-syntax-ns#"
   xmlns:cc="http://creativecommons.org/ns#"
   xmlns:dc="http://purl.org/dc/elements/1.1/">
  <sodipodi:namedview
     id="namedview1"
     pagecolor="#505050"
     bordercolor="#eeeeee"
     borderopacity="1"
     inkscape:showpageshadow="false"
     inkscape:pageopacity="0"
     inkscape:pagecheckerboard="true"
     inkscape:deskcolor="#505050"
     inkscape:document-units="px"
     borderlayer="true"
     labelstyle="default"
     inkscape:clip-to-page="false"
     inkscape:zoom="0.98520764"
     inkscape:cx="75.11107"
     inkscape:cy="181.68759"
     inkscape:window-width="1920"
     inkscape:window-height="991"
     inkscape:window-x="-9"
     inkscape:window-y="-9"
     inkscape:window-maximized="1"
     inkscape:current-layer="layer1"
     showgrid="false" />
  <defs
     id="defs1" />
  <g
     inkscape:label="Layer 1"
     inkscape:groupmode="layer"
     id="layer1">
    <path
       d="M 33.866666,0 A 33.866665,33.866665 0 0 0 0,33.866666 33.866665,33.866665 0 0 0 33.866666,67.733332 33.866665,33.866665 0 0 0 67.733332,33.866666 33.866665,33.866665 0 0 0 33.866666,0 Z M 19.129065,14.896248 a 4.233315,4.233315 0 0 1 2.994132,1.238684 L 33.866666,27.879435 45.611169,16.134932 a 4.233315,4.233315 0 0 1 2.994132,-1.238684 4.233315,4.233315 0 0 1 2.992582,1.238684 4.233315,4.233315 0 0 1 0,5.988265 L 39.854414,33.866666 51.597883,45.611169 a 4.233315,4.233315 0 0 1 0,5.986714 4.233315,4.233315 0 0 1 -5.986714,0 L 33.866666,39.854414 22.123197,51.597883 a 4.233315,4.233315 0 0 1 -5.988265,0 4.233315,4.233315 0 0 1 0,-5.986714 L 27.879435,33.866666 16.134932,22.123197 a 4.233315,4.233315 0 0 1 0,-5.988265 4.233315,4.233315 0 0 1 2.994133,-1.238684 z"
       style="fill:#ffffff;stroke-width:4.23333;stroke-linecap:round"
       id="path6" />
    <circle
       style="fill:#ffffff;stroke-width:4.23333;stroke-linecap:round"
       id="path1-5"
       cx="137.05417"
       cy="27.252081"
       r="33.866665" />
    <path
       style="fill:#ff0000;stroke:#ff0000;stroke-width:8.46663;stroke-linecap:round;stroke-dasharray:none"
       d="m 122.31633,12.639263 29.47568,29.475682"
       id="path7-0" />
    <use
       x="0"
       y="0"
       xlink:href="#path7-0"
       id="use7-8"
       transform="rotate(-90,137.05417,27.377103)" />
    <path
       style="fill:none;stroke:#ffffff;stroke-width:8.46667;stroke-linecap:round;stroke-dasharray:none"
       d="m -93.102176,-0.637575 35.921024,35.921024"
       id="path7-5" />
    <use
       x="0"
       y="0"
       xlink:href="#path7-5"
       id="use7-9"
       transform="rotate(-90,-75.141664,17.322937)" />
    <circle
       style="fill:#ffffff;stroke-width:4.23333;stroke-linecap:round"
       id="path1-4"
       cx="-75.141663"
       cy="17.197914"
       r="33.866665" />
  </g>
  <metadata
     id="metadata1">
    <rdf:RDF>
      <cc:Work
         rdf:about="">
        <dc:creator>
          <cc:Agent>
            <dc:title>Patou (aka xorblo-doitus)</dc:title>
          </cc:Agent>
        </dc:creator>
      </cc:Work>
    </rdf:RDF>
  </metadata>
</svg>
